<svg version="1.1" id="Layer_1" xmlns="http://www.w3.org/2000/svg" xmlns:xlink="http://www.w3.org/1999/xlink" x="0px" y="0px"
	 width="100%" viewBox="0 0 1563 1563" enable-background="new 0 0 1563 1563" xml:space="preserve">
<path fill="#000000" opacity="1.000000" stroke="none" 
	d="
M766.000000,1564.000000 
	C510.666718,1564.000000 255.833420,1564.000000 1.000103,1564.000000 
	C1.000068,1043.000122 1.000068,522.000305 1.000034,1.000312 
	C521.999756,1.000208 1042.999512,1.000208 1563.999512,1.000104 
	C1563.999634,521.999695 1563.999634,1042.999390 1563.999756,1563.999512 
	C1298.166626,1564.000000 1032.333374,1564.000000 766.000000,1564.000000 
M693.207153,1465.718994 
	C701.450378,1462.137207 709.804138,1458.788452 717.919250,1454.936646 
	C783.852600,1423.641113 834.443115,1376.169800 868.820923,1311.610840 
	C891.089417,1269.792236 905.051270,1225.151001 914.122192,1178.848633 
	C923.857361,1129.156250 927.721863,1078.886719 927.743042,1028.342163 
	C927.868042,729.527222 927.802185,430.712280 927.952515,131.897400 
	C927.955139,126.620583 926.381714,125.625168 921.477051,125.633698 
	C836.982483,125.780464 752.487671,125.740402 667.992859,125.740021 
	C660.764648,125.739990 660.763977,125.735817 660.763977,133.009811 
	C660.763916,414.825806 660.810791,696.641846 660.690247,978.457764 
	C660.678406,1006.100952 660.278503,1033.775391 658.912109,1061.378540 
	C657.217957,1095.602295 651.374939,1129.171997 639.048096,1161.371948 
	C625.090027,1197.833252 602.283020,1226.733398 567.455383,1245.416382 
	C542.826172,1258.628418 516.298523,1264.805420 488.657837,1267.361938 
	C456.344421,1270.350586 424.429047,1268.319092 392.984222,1260.429199 
	C338.095642,1246.656860 293.747803,1216.121704 256.892609,1173.908569 
	C232.563187,1146.042114 214.085571,1114.545654 199.491730,1080.690063 
	C198.240540,1077.787354 196.800400,1076.538574 193.626389,1076.681396 
	C188.636795,1076.906128 183.591385,1076.376221 178.646133,1076.895142 
	C176.165848,1077.155273 173.154617,1078.425537 171.580673,1080.263794 
	C161.725174,1091.774170 152.209427,1103.575195 142.577438,1115.276978 
	C104.262642,1161.824829 65.984100,1208.402710 27.560053,1254.860107 
	C24.440971,1258.631348 23.583462,1261.472412 25.972708,1266.250000 
	C71.400299,1357.088135 143.449646,1419.096191 235.583511,1458.785522 
	C300.980011,1486.956665 370.225586,1498.057129 440.909546,1500.749878 
	C485.887024,1502.463501 530.826172,1501.356812 575.554016,1495.197876 
	C615.617432,1489.681152 654.747375,1480.687500 693.207153,1465.718994 
M1335.243896,1489.159546 
	C1357.602783,1491.320435 1379.853027,1490.651367 1401.850708,1485.939209 
	C1448.714355,1475.900146 1484.076294,1450.150513 1506.254517,1407.484009 
	C1522.043091,1377.109863 1525.721436,1344.405518 1521.094849,1310.840820 
	C1513.253296,1253.952393 1482.787842,1213.888550 1429.458618,1192.370361 
	C1392.958252,1177.642456 1354.875244,1176.220459 1316.518433,1183.670776 
	C1283.255859,1190.131592 1254.226074,1205.158936 1231.586304,1230.639648 
	C1196.199219,1270.467163 1187.219360,1317.818359 1196.664429,1368.738281 
	C1211.198853,1447.096436 1273.864136,1483.169189 1335.243896,1489.159546 
z"/>
<path fill="#F20515" opacity="1.000000" stroke="none" 
	d="
M692.845886,1465.852661 
	C654.747375,1480.687500 615.617432,1489.681152 575.554016,1495.197876 
	C530.826172,1501.356812 485.887024,1502.463501 440.909546,1500.749878 
	C370.225586,1498.057129 300.980011,1486.956665 235.583511,1458.785522 
	C143.449646,1419.096191 71.400299,1357.088135 25.972708,1266.250000 
	C23.583462,1261.472412 24.440971,1258.631348 27.560053,1254.860107 
	C65.984100,1208.402710 104.262642,1161.824829 142.577438,1115.276978 
	C152.209427,1103.575195 161.725174,1091.774170 171.580673,1080.263794 
	C173.154617,1078.425537 176.165848,1077.155273 178.646133,1076.895142 
	C183.591385,1076.376221 188.636795,1076.906128 193.626389,1076.681396 
	C196.800400,1076.538574 198.240540,1077.787354 199.491730,1080.690063 
	C214.085571,1114.545654 232.563187,1146.042114 256.892609,1173.908569 
	C293.747803,1216.121704 338.095642,1246.656860 392.984222,1260.429199 
	C424.429047,1268.319092 456.344421,1270.350586 488.657837,1267.361938 
	C516.298523,1264.805420 542.826172,1258.628418 567.455383,1245.416382 
	C602.283020,1226.733398 625.090027,1197.833252 639.048096,1161.371948 
	C651.374939,1129.171997 657.217957,1095.602295 658.912109,1061.378540 
	C660.278503,1033.775391 660.678406,1006.100952 660.690247,978.457764 
	C660.810791,696.641846 660.763916,414.825806 660.763977,133.009811 
	C660.763977,125.735817 660.764648,125.739990 667.992859,125.740021 
	C752.487671,125.740402 836.982483,125.780464 921.477051,125.633698 
	C926.381714,125.625168 927.955139,126.620583 927.952515,131.897400 
	C927.802185,430.712280 927.868042,729.527222 927.743042,1028.342163 
	C927.721863,1078.886719 923.857361,1129.156250 914.122192,1178.848633 
	C905.051270,1225.151001 891.089417,1269.792236 868.820923,1311.610840 
	C834.443115,1376.169800 783.852600,1423.641113 717.919250,1454.936646 
	C709.804138,1458.788452 701.450378,1462.137207 692.845886,1465.852661 
z"/>
<path fill="#FFFFFF" opacity="1.000000" stroke="none" 
	d="
M1334.790039,1489.121826 
	C1273.864136,1483.169189 1211.198853,1447.096436 1196.664429,1368.738281 
	C1187.219360,1317.818359 1196.199219,1270.467163 1231.586304,1230.639648 
	C1254.226074,1205.158936 1283.255859,1190.131592 1316.518433,1183.670776 
	C1354.875244,1176.220459 1392.958252,1177.642456 1429.458618,1192.370361 
	C1482.787842,1213.888550 1513.253296,1253.952393 1521.094849,1310.840820 
	C1525.721436,1344.405518 1522.043091,1377.109863 1506.254517,1407.484009 
	C1484.076294,1450.150513 1448.714355,1475.900146 1401.850708,1485.939209 
	C1379.853027,1490.651367 1357.602783,1491.320435 1334.790039,1489.121826 
z"/>
</svg>